<svg width="156" height="176" viewBox="0 0 156 176" fill="none" xmlns="http://www.w3.org/2000/svg">
<g clip-path="url(#clip0_2_13)">
<path fill-rule="evenodd" clip-rule="evenodd" d="M155.886 51.9185L156 51.8607C155.977 51.6899 155.942 51.5288 155.92 51.3815C155.92 51.2093 155.931 51.0372 155.931 50.8664C155.93 49.3754 155.683 47.8949 155.201 46.4843C153.623 40.8903 147.098 36.303 140.288 37.4474C137.563 37.8599 135.028 39.0891 133.015 40.9729C131.152 40.1949 125.485 36.7754 123.473 35.5731C122.89 35.2302 122.341 34.8983 121.874 34.6243L120.36 33.5721C121.023 18.0021 99.301 18.0599 100.031 33.5721C99.986 33.6176 99.9062 33.6176 99.8829 33.7098L98.7177 34.5224C96.7299 35.6558 88.8448 40.4372 87.8957 40.5515C87.3592 41.2263 85.5654 42.2041 84.4676 42.755C81.748 41.4054 80.4233 39.9869 76.0694 40.7306C67.2461 42.5539 64.9213 53.8769 71.6454 58.8649C74.8341 61.2336 79.2223 61.9883 83.1181 59.654C86.5696 57.5952 88.3056 54.6549 88.146 49.4163L103.699 40.2637C106.029 41.3393 106.636 42.3914 110.2 42.3914C113.823 42.4038 114.371 41.2704 116.703 40.2761C118.245 41.0652 127.547 46.2585 129.123 47.5626C128.852 48.6435 128.713 49.7534 128.71 50.8678C128.71 51.9594 128.844 53.0469 129.111 54.1055C128.002 55.0199 125.192 56.4273 124.255 56.9975C115.269 62.4235 106.933 66.9419 97.9281 72.2274C94.7848 74.0686 90.7858 76.7913 87.3 78.2869C81.6599 73.1501 74.3086 73.3112 68.6397 78.2869C65.2804 76.834 41.9002 62.8628 37.413 60.315C35.0469 58.9764 29.1276 55.0819 26.8537 54.3781C26.9912 51.4723 27.0146 50.1227 26.7285 47.4221L57.9786 29.3966C61.3158 27.4521 65.3492 24.695 68.6864 23.322C79.027 33.9495 97.6186 20.6792 89.7005 6.82509C86.6947 1.56299 79.6405 -1.79037 72.8793 1.01488C66.7771 3.55435 63.5553 9.34252 64.8471 16.9499C58.9154 19.6271 25.8687 39.9483 22.7268 41.0501C21.8698 39.8271 19.6633 38.6139 18.0634 38.0534C12.1221 35.9877 5.05962 38.4886 1.85992 43.9903C-1.3164 49.4824 -0.162251 56.9176 4.74048 61.0353C6.66635 62.6603 7.59627 62.8256 9.81378 63.8502L9.85918 78.5609C3.76928 81.2615 1.39221 87.7135 4.75148 93.284C6.20277 95.6748 8.33912 97.2888 11.1963 98.0889C14.9903 99.1645 17.0358 97.3232 20.0182 96.121C22.1889 97.1621 34.1307 103.866 35.5366 105.17C35.6618 109.141 35.9245 111.314 38.4722 113.864C39.6355 115.015 41.0517 115.877 42.6074 116.382C44.1632 116.886 45.8153 117.019 47.4316 116.77C53.7513 115.832 57.8534 109.014 55.065 102.357C53.179 97.8493 47.6834 95.5605 42.9595 96.7738C37.457 98.1922 42.7421 100.641 31.1786 93.9712C28.6296 92.4949 25.8536 91.0999 23.7502 89.6015C23.5219 84.0929 22.4599 81.0549 17.3398 78.5609L17.2367 63.8502C19.0539 62.9234 21.4873 62.3739 22.6883 60.5781C26.4025 61.8258 57.8836 81.2037 64.7962 84.67C64.2597 88.9832 64.4426 92.2209 66.7055 95.493C67.607 96.8335 68.7272 98.0128 70.0194 98.9813C71.4239 99.999 73.0128 100.343 74.3609 101.201L74.3719 149.385C72.8298 150.381 69.9382 151.067 68.7965 152.748C66.4579 152.097 35.1542 133.369 28.4012 129.594L26.9389 128.656C26.6872 123.897 27.5552 122.433 25.2882 118.578C20.0608 109.627 6.90159 109.701 1.90256 118.429C-1.84602 124.95 0.324719 131.894 5.0101 135.772C9.99261 139.89 18.7223 139.73 22.8712 134.994C24.2991 135.578 26.7904 137.225 28.0133 137.911C29.715 138.883 31.5555 139.924 33.2008 140.931C36.2065 142.75 61.7794 157.771 64.8195 159.097C63.8937 166.12 65.7825 171.384 71.6977 174.507C77.3996 177.515 84.5873 175.766 88.4156 171.086C91.3636 167.471 91.8437 164.348 91.1119 159.097C93.4092 158.113 102.55 152.017 103.693 151.959C104.858 151.903 107.567 155.117 112.526 153.887C118.811 152.342 122.033 145.741 119.611 139.896C118.274 136.693 116.538 135.892 113.954 134.314L113.856 116.232C124.586 111.549 121.261 96.4983 110.2 96.4859C98.7617 96.4639 96.0875 111.359 106.486 116.243L106.508 134.318C104.051 135.793 103.286 135.839 101.663 138.241C99.8746 140.895 100.304 142.154 99.9379 145.643C96.4177 147.176 90.2934 151.889 87.1446 152.759C86.139 151.214 83.4882 150.253 81.6145 149.349L81.5334 122.157L81.6022 116.484L81.5664 101.146C85.2352 99.6024 87.1088 98.6522 89.2465 95.4999C90.2975 93.9437 90.7597 92.5941 91.2453 90.7405C91.5314 89.6387 91.1999 85.0087 91.4063 84.681C92.2977 83.7431 99.964 79.6475 101.723 78.5954L122.544 66.5838C124.497 65.4518 125.8 64.6558 127.731 63.5748C129.382 62.6479 131.25 61.3438 132.942 60.7034C134.551 62.2235 136.503 63.3307 138.633 63.9301L138.713 112.252C135.707 113.739 133.456 114.593 131.445 117.399C129.503 120.111 128.519 123.291 128.988 127.238C130.724 141.88 153.351 143.116 155.83 127.145C156.389 123.474 155.142 119.87 153.385 117.41C151.374 114.619 149.682 113.784 146.129 112.228C145.866 108.064 145.888 67.041 146.266 63.8612C148.884 63.0713 151.203 61.5087 152.919 59.3779C154.636 57.2471 155.67 54.6473 155.886 51.9185Z" fill="black"/>
</g>
<defs>
<clipPath id="clip0_2_13">
<rect width="156" height="176" fill="white"/>
</clipPath>
</defs>
</svg>
