<svg width="512" height="512" viewBox="0 0 512 512" fill="none" xmlns="http://www.w3.org/2000/svg">
<path d="M88 72V388C88 393.304 85.8929 398.391 82.1421 402.142C78.3914 405.893 73.3043 408 68 408C62.6957 408 57.6086 405.893 53.8579 402.142C50.1071 398.391 48 393.304 48 388V152H16V388C16.0156 401.786 21.4992 415.004 31.2477 424.752C40.9962 434.501 54.2135 439.984 68 440H444C457.786 439.984 471.004 434.501 480.752 424.752C490.501 415.004 495.984 401.786 496 388V72H88ZM464 388C463.994 393.302 461.885 398.386 458.135 402.135C454.386 405.885 449.302 407.994 444 408H116C118.648 401.665 120.007 394.866 120 388V104H464V388Z" fill="black"/>
<path d="M296 136H152V296H296V136ZM264 264H184V168H264V264ZM328 136H432V168H328V136ZM328 200H432V232H328V200ZM328 264H432V296H328V264Z" fill="black"/>
</svg>
