<svg width="28" height="27" viewBox="0 0 28 27" fill="none" xmlns="http://www.w3.org/2000/svg">
<g filter="url(#filter0_d_156_146)">
<path d="M22.8571 17.3982L19.3371 13.9017C20.7034 12.1956 21.3651 10.03 21.1861 7.85039C21.0071 5.67073 20.0009 3.6426 18.3746 2.18303C16.7482 0.723456 14.6253 -0.0566193 12.4423 0.00320294C10.2592 0.0630252 8.18207 0.958197 6.63786 2.50465C5.09365 4.05111 4.19977 6.1313 4.14004 8.3175C4.0803 10.5037 4.85925 12.6297 6.3167 14.2585C7.77415 15.8872 9.79933 16.8948 11.9758 17.074C14.1523 17.2533 16.3147 16.5907 18.0183 15.2224L21.5098 18.7189C21.598 18.808 21.7029 18.8787 21.8186 18.9269C21.9342 18.9752 22.0582 19 22.1834 19C22.3087 19 22.4327 18.9752 22.5483 18.9269C22.6639 18.8787 22.7689 18.808 22.8571 18.7189C23.0281 18.5418 23.1237 18.305 23.1237 18.0586C23.1237 17.8122 23.0281 17.5754 22.8571 17.3982ZM12.6957 15.2224C11.3821 15.2224 10.0981 14.8323 9.00588 14.1015C7.9137 13.3706 7.06245 12.3319 6.55977 11.1165C6.0571 9.90121 5.92558 8.56389 6.18184 7.27371C6.4381 5.98352 7.07063 4.79841 7.99946 3.86823C8.92828 2.93806 10.1117 2.30461 11.4 2.04797C12.6883 1.79134 14.0237 1.92305 15.2372 2.42646C16.4508 2.92986 17.488 3.78235 18.2178 4.87612C18.9476 5.96989 19.3371 7.25581 19.3371 8.57127C19.3371 10.3353 18.6374 12.027 17.3919 13.2743C16.1464 14.5216 14.4571 15.2224 12.6957 15.2224Z" fill="white"/>
</g>
<defs>
<filter id="filter0_d_156_146" x="0.136841" y="0" width="26.9868" height="27" filterUnits="userSpaceOnUse" color-interpolation-filters="sRGB">
<feFlood flood-opacity="0" result="BackgroundImageFix"/>
<feColorMatrix in="SourceAlpha" type="matrix" values="0 0 0 0 0 0 0 0 0 0 0 0 0 0 0 0 0 0 127 0" result="hardAlpha"/>
<feOffset dy="4"/>
<feGaussianBlur stdDeviation="2"/>
<feComposite in2="hardAlpha" operator="out"/>
<feColorMatrix type="matrix" values="0 0 0 0 0 0 0 0 0 0 0 0 0 0 0 0 0 0 0.25 0"/>
<feBlend mode="normal" in2="BackgroundImageFix" result="effect1_dropShadow_156_146"/>
<feBlend mode="normal" in="SourceGraphic" in2="effect1_dropShadow_156_146" result="shape"/>
</filter>
</defs>
</svg>
