<svg width="287" height="164" viewBox="0 0 287 164" fill="none" xmlns="http://www.w3.org/2000/svg">
<rect x="54" width="227" height="3" fill="#283855"/>
<rect x="54" y="161" width="227" height="3" fill="#283855"/>
<rect x="51" y="158" width="3" height="3" fill="#283855"/>
<rect x="45" y="99" width="3" height="3" fill="#283855"/>
<rect x="42" y="102" width="3" height="3" fill="#283855"/>
<rect x="39" y="105" width="3" height="3" fill="#283855"/>
<rect x="36" y="108" width="3" height="3" fill="#283855"/>
<rect x="33" y="111" width="3" height="3" fill="#283855"/>
<rect x="30" y="114" width="3" height="3" fill="#283855"/>
<rect x="27" y="117" width="3" height="3" fill="#283855"/>
<rect x="24" y="120" width="3" height="3" fill="#283855"/>
<rect x="21" y="123" width="3" height="3" fill="#283855"/>
<rect x="18" y="126" width="3" height="3" fill="#283855"/>
<rect x="15" y="129" width="3" height="3" fill="#283855"/>
<rect x="12" y="132" width="3" height="3" fill="#283855"/>
<rect x="9" y="135" width="3" height="3" fill="#283855"/>
<rect x="6" y="138" width="3" height="3" fill="#283855"/>
<rect x="3" y="141" width="3" height="3" fill="#283855"/>
<rect y="144" width="3" height="3" fill="#283855"/>
<rect x="3" y="147" width="45" height="3" fill="#283855"/>
<rect x="51" y="3" width="3" height="3" fill="#283855"/>
<rect x="281" y="158" width="3" height="3" fill="#283855"/>
<rect x="281" y="3" width="3" height="3" fill="#283855"/>
<rect x="284" y="6" width="3" height="152" fill="#283855"/>
<rect x="48" y="6" width="3" height="93" fill="#283855"/>
<rect width="3" height="8" transform="matrix(1 0 0 -1 48 158)" fill="#283855"/>
<rect x="54" width="227" height="3" fill="#283855"/>
<rect x="54" y="161" width="227" height="3" fill="#283855"/>
<rect x="51" y="158" width="3" height="3" fill="#283855"/>
<rect x="45" y="99" width="3" height="3" fill="#283855"/>
<rect x="42" y="102" width="3" height="3" fill="#283855"/>
<rect x="39" y="105" width="3" height="3" fill="#283855"/>
<rect x="36" y="108" width="3" height="3" fill="#283855"/>
<rect x="33" y="111" width="3" height="3" fill="#283855"/>
<rect x="30" y="114" width="3" height="3" fill="#283855"/>
<rect x="27" y="117" width="3" height="3" fill="#283855"/>
<rect x="24" y="120" width="3" height="3" fill="#283855"/>
<rect x="21" y="123" width="3" height="3" fill="#283855"/>
<rect x="3" y="147" width="45" height="3" fill="#283855"/>
<rect x="51" y="3" width="3" height="3" fill="#283855"/>
<rect x="281" y="158" width="3" height="3" fill="#283855"/>
<rect x="281" y="3" width="3" height="3" fill="#283855"/>
<rect x="284" y="6" width="3" height="152" fill="#283855"/>
<rect x="48" y="6" width="3" height="93" fill="#283855"/>
<rect width="3" height="8" transform="matrix(1 0 0 -1 48 158)" fill="#283855"/>
</svg>
