<svg width="1920" height="548" viewBox="0 0 1920 548" fill="none" xmlns="http://www.w3.org/2000/svg">
<rect x="333" y="5" width="40" height="27" fill="#DB00D2" fill-opacity="0.43"/>
<rect x="403" y="488" width="120" height="30" fill="#DB00D2" fill-opacity="0.43"/>
<rect x="32" y="416" width="120" height="30" fill="#DB00D2" fill-opacity="0.43"/>
<rect x="92" y="446" width="120" height="30" fill="#DB00D2" fill-opacity="0.43"/>
<rect x="177" y="30" width="120" height="30" fill="#DB00D2" fill-opacity="0.43"/>
<rect x="463" y="518" width="30" height="30" fill="#DB00D2" fill-opacity="0.43"/>
<rect x="1725" y="5" width="30" height="30" fill="#DB00D2" fill-opacity="0.43"/>
<rect x="77" y="60" width="30" height="30" fill="#DB00D2" fill-opacity="0.43"/>
<rect x="107" y="30" width="30" height="30" fill="#DB00D2" fill-opacity="0.43"/>
<rect x="268" y="476" width="30" height="30" fill="#DB00D2" fill-opacity="0.43"/>
<rect x="298" y="446" width="30" height="30" fill="#DB00D2" fill-opacity="0.43"/>
<rect x="122" y="386" width="30" height="30" fill="#DB00D2" fill-opacity="0.43"/>
<rect x="61" y="347" width="30" height="30" fill="#DB00D2" fill-opacity="0.43"/>
<rect x="152" y="476" width="30" height="30" fill="#DB00D2" fill-opacity="0.43"/>
<rect x="31" y="473" width="30" height="30" fill="#DB00D2" fill-opacity="0.43"/>
<rect x="207" width="30" height="30" fill="#DB00D2" fill-opacity="0.43"/>
<rect x="1453" y="488" width="90" height="30" fill="#DB00D2" fill-opacity="0.43"/>
<rect x="1573" y="407" width="90" height="30" fill="#DB00D2" fill-opacity="0.43"/>
<rect x="1785" y="345" width="57" height="30" fill="#DB00D2" fill-opacity="0.43"/>
<rect x="1725" y="65" width="195" height="250" fill="#DB00D2" fill-opacity="0.43"/>
<rect x="1635" y="349" width="90" height="30" fill="#DB00D2" fill-opacity="0.43"/>
<rect x="1854" y="35" width="66" height="30" fill="#DB00D2" fill-opacity="0.43"/>
<rect width="221" height="386" transform="matrix(1 0 0 -1 152 446)" fill="#DB00D2" fill-opacity="0.43"/>
<rect width="152" height="263" transform="matrix(1 0 0 -1 0 349)" fill="#DB00D2" fill-opacity="0.43"/>
<rect width="152" height="344" transform="matrix(1 0 0 -1 1573 349)" fill="#DB00D2" fill-opacity="0.43"/>
<rect x="1255" y="488" width="30" height="30" fill="#DB00D2" fill-opacity="0.43"/>
<rect x="590" y="488" width="120" height="30" fill="#DB00D2" fill-opacity="0.43"/>
<rect x="373" y="9" width="1200" height="483" fill="#DB00D2" fill-opacity="0.43"/>
<rect x="741" y="488" width="30" height="30" fill="#DB00D2" fill-opacity="0.43"/>
<rect x="1695" y="379" width="30" height="30" fill="#DB00D2" fill-opacity="0.43"/>
<rect x="1890" y="6" width="30" height="30" fill="#DB00D2" fill-opacity="0.43"/>
<rect x="1513" y="518" width="30" height="30" fill="#DB00D2" fill-opacity="0.43"/>
<rect x="1605" y="434" width="30" height="30" fill="#DB00D2" fill-opacity="0.43"/>
<rect x="1633" y="464" width="30" height="30" fill="#DB00D2" fill-opacity="0.43"/>
<rect x="1812" y="375" width="30" height="30" fill="#DB00D2" fill-opacity="0.43"/>
<rect x="1823" y="5" width="30" height="30" fill="#DB00D2" fill-opacity="0.43"/>
</svg>
