<svg width="60" height="60" viewBox="0 0 60 60" fill="none" xmlns="http://www.w3.org/2000/svg">
<circle cx="30" cy="30" r="29.5" stroke="black" stroke-opacity="0.4"/>
<path d="M28 50.0498C28 51.1544 28.8954 52.0498 30 52.0498C31.1046 52.0498 32 51.1544 32 50.0498H28ZM31.4142 8.58562C30.6332 7.80457 29.3668 7.80457 28.5858 8.58562L15.8579 21.3135C15.0768 22.0946 15.0768 23.3609 15.8579 24.142C16.6389 24.923 17.9052 24.923 18.6863 24.142L30 12.8283L41.3137 24.142C42.0948 24.923 43.3611 24.923 44.1421 24.142C44.9232 23.3609 44.9232 22.0946 44.1421 21.3135L31.4142 8.58562ZM32 50.0498L32 9.99984H28L28 50.0498H32Z" fill="black" fill-opacity="0.4"/>
</svg>
